# xmcd
#
# Track frame offsets:
#	150
#	12735
#	22815
#	35210
#	48260
#	69955
#	83026
#	94887
#	108305
#	121742
#	133970
#	145214
#	157725
#	172469
#	186265
#	199291
#	213728
#	226688
#	239064
#	250806
#	265539
#	278688
#	291537
#	303152
#
# Disc length: 4207 seconds
#
# Revision: 0
# Processed by: cddbd v1.5.2PL0 Copyright (c) Steve Scherf et al.
# Submitted via: audiograbber 1.83.01
#
DISCID=61106d18
DTITLE=Various Artist - A Portrait Of The Roots Of Rock N Roll [CD2]
DYEAR=1999
DGENRE=Blues/RnB
TTITLE0=Wynonie Harris - Good Rocking Tonight
TTITLE1=Johnnie Tyler - Oakie Boogie
TTITLE2=Louis Jordan - Choo Choo ChBoogie
TTITLE3=Tex Williams - Smoke! Smoke! Smoke!
TTITLE4=Paul Williams - The Twister
TTITLE5=Arthur "Big Boy" Crudup - Thats All Right
TTITLE6=Albinia Jones - Hole In The Wall Tonight
TTITLE7=Amos Milburn - Down The Road Apiece
TTITLE8=Peggy Lee - Everythings Moving Too Fast
TTITLE9=Jack McVea - Bartender Boogie
TTITLE10=Paul Gayten - Your Hands Aint Clean
TTITLE11=Delmore Brithers - Boogie Woogie Baby
TTITLE12=Blue Lu Barker - Heres A Little Girl
TTITLE13=T-Bone Walker - T-Bone Boogie
TTITLE14=Moon Mullican - Shoot The Moon
TTITLE15=Ella Mae Morse With Freddie Slack - Cow Cow Boogie
TTITLE16=Five Red Caps - Boogie Woogie On A Saturday Night
TTITLE17=Helen Humes  - Be-Baba-Ueba
TTITLE18=Merle Travis - Cincinatti Lou
TTITLE19=Lionel Hampton - Hamps Boogie Woogie
TTITLE20=Julia Lee - Mama Dont Allow
TTITLE21=Spade Cooley - Oklahoma Stomp
TTITLE22=Pee Wee King - Ten Gallon Boogie
TTITLE23=Roy Milton - Big Fat Mama
EXTD=This versaion has Artists names
EXTT0=
EXTT1=
EXTT2=
EXTT3=
EXTT4=
EXTT5=
EXTT6=
EXTT7=
EXTT8=
EXTT9=
EXTT10=
EXTT11=
EXTT12=
EXTT13=
EXTT14=
EXTT15=
EXTT16=
EXTT17=
EXTT18=
EXTT19=
EXTT20=
EXTT21=
EXTT22=
EXTT23=
PLAYORDER=
